<svg xmlns="http://www.w3.org/2000/svg" enable-background="new 0 0 54 54" viewBox="0 0 54 54" id="gold">
  <path fill="#f9a825" d="M52,3H30c-0.5527344,0-1,0.4477539-1,1v48c0,0.5522461,0.4472656,1,1,1h22c0.5527344,0,1-0.4477539,1-1V4
		C53,3.4477539,52.5527344,3,52,3z"></path>
  <rect width="24" height="2" x="29" y="7" fill="#f57f17"></rect>
  <rect width="24" height="2" x="29" y="11" fill="#f57f17"></rect>
  <rect width="24" height="2" x="29" y="15" fill="#f57f17"></rect>
  <rect width="24" height="2" x="29" y="19" fill="#f57f17"></rect>
  <rect width="24" height="2" x="29" y="23" fill="#f57f17"></rect>
  <rect width="24" height="2" x="29" y="27" fill="#f57f17"></rect>
  <rect width="24" height="2" x="29" y="31" fill="#f57f17"></rect>
  <rect width="24" height="2" x="29" y="35" fill="#f57f17"></rect>
  <path fill="#f57f17" d="M53 39v2H29.9199829C29.5100098 41 29.1500244 40.75 29 40.3900146c-.0499878-.1200562-.0800171-.25-.0800171-.3900146S28.9500122 39.7299805 29 39.6099854C29.1500244 39.25 29.5100098 39 29.9199829 39H53zM53 43v2H29.9199829C29.5100098 45 29.1500244 44.75 29 44.3900146c-.0499878-.1200562-.0800171-.25-.0800171-.3900146S28.9500122 43.7299805 29 43.6099854C29.1500244 43.25 29.5100098 43 29.9199829 43H53z"></path>
  <rect width="24" height="2" x="29" y="47" fill="#f57f17"></rect>
  <path fill="#ff6d00" d="M31,10H9c-0.5527344,0-1,0.4477539-1,1v19.4614258c0,0.5078125,0.3808594,0.9350586,0.8857422,0.9931641
		l22,2.5390625C30.9238281,33.9980469,30.9619141,34,31,34c0.2441406,0,0.4814453-0.0893555,0.6650391-0.253418
		C31.8779297,33.5566406,32,33.2851562,32,33V11C32,10.4477539,31.5527344,10,31,10z"></path>
  <path fill="#ff6d00" d="M32,11v22c0,0.289978-0.1199951,0.5599976-0.3300171,0.75C31.4799805,33.9099731,31.2399902,34,31,34
		c-0.039978,0-0.0800171,0-0.1099854-0.0100098l-22-2.539978C8.3800049,31.3999634,8,30.9699707,8,30.4599609V11
		c0-0.5499878,0.4500122-1,1-1h22C31.5499878,10,32,10.4500122,32,11z"></path>
  <rect width="24" height="2" x="8" y="26" fill="#ff9800"></rect>
  <rect width="24" height="2" x="8" y="14" fill="#ff9800"></rect>
  <rect width="24" height="2" x="8" y="18" fill="#ff9800"></rect>
  <rect width="24" height="2" x="8" y="22" fill="#ff9800"></rect>
  <path fill="#ff9800" d="M28.4746094,1.8266602c-0.0458984-0.2612305-0.1933594-0.4936523-0.4111328-0.6459961
		c-0.2167969-0.1513672-0.4853516-0.2124023-0.7470703-0.1655273L5.6503906,4.8354492
		C5.1064453,4.9316406,4.7431641,5.4501953,4.8398438,5.9941406l0.6943359,3.9389648
		c0.0458984,0.2607422,0.1933594,0.4931641,0.4111328,0.6455078c0.1689453,0.1181641,0.3691406,0.1806641,0.5732422,0.1806641
		c0.0576172,0,0.1162109-0.0048828,0.1738281-0.0151367l21.6660156-3.8198242
		c0.5439453-0.0957031,0.9072266-0.6147461,0.8105469-1.1582031L28.4746094,1.8266602z"></path>
  <circle cx="13" cy="41" r="12" fill="#f9a825"></circle>
  <path fill="#f57f17" d="M13,50c-4.9628906,0-9-4.0375977-9-9s4.0371094-9,9-9s9,4.0375977,9,9S17.9628906,50,13,50z M13,34
			c-3.859375,0-7,3.1401367-7,7s3.140625,7,7,7s7-3.1401367,7-7S16.859375,34,13,34z"></path>
  <circle cx="23" cy="41" r="12" fill="#fbc02d"></circle>
  <path fill="#ff6d00" d="M23,50c-4.9628906,0-9-4.0375977-9-9s4.0371094-9,9-9s9,4.0375977,9,9S27.9628906,50,23,50z M23,34
			c-3.859375,0-7,3.1401367-7,7s3.140625,7,7,7s7-3.1401367,7-7S26.859375,34,23,34z"></path>
</svg>
